# xmcd
#
# Track frame offsets:
#	150
#	21190
#	36989
#	54421
#	76276
#	88769
#	105992
#	121563
#	136891
#	153711
#	171281
#	186397
#	202556
#	219418
#
# Disc length: 3138 seconds
#
# Revision: 0
# Processed by: cddbd v1.5.2PL0 Copyright (c) Steve Scherf et al.
# Submitted via: EasyCDDAExtractor 2010.6.0.0
#
DISCID=b00c400e
DTITLE=Dozi - Voel So Reg
DYEAR=1900
DGENRE=Afrikaans
TTITLE0=Amy Is Terug In Kaapstad
TTITLE1=Maria
TTITLE2=Skop 'n Bietjie
TTITLE3=As Die Son Gaan Sak
TTITLE4=Swart Sambuka
TTITLE5='n Paar Jaar op My
TTITLE6=Always On My Mind
TTITLE7=Vryheid Vir My Mense
TTITLE8=Sonder Jou
TTITLE9=Grown Men Don't Cry
TTITLE10=Some Beach
TTITLE11=As Jy Deur Hel Gaan
TTITLE12=Ossewa
TTITLE13=It's A Heartache
EXTD=
EXTT0=
EXTT1=
EXTT2=
EXTT3=
EXTT4=
EXTT5=
EXTT6=
EXTT7=
EXTT8=
EXTT9=
EXTT10=
EXTT11=
EXTT12=
EXTT13=
PLAYORDER=
